<svg width="64" height="64" viewBox="0 0 64 64" fill="none" xmlns="http://www.w3.org/2000/svg">
<path d="M18 41H4.5V22H18H18.3459L18.6178 21.7863L31 12.0575V50.9425L18.6178 41.2137L18.3459 41H18Z" fill="#91918F" stroke="#555555" stroke-width="2"/>
<path d="M40.9295 32C40.9295 35.866 38.396 39 37.4295 39C36.463 39 37.4296 35.866 37.4296 32C37.4296 28.134 36.463 25 37.4295 25C38.396 25 40.9295 28.134 40.9295 32Z" fill="#E33141"/>
<path d="M49.5442 32C49.5442 38.6274 46.2007 44 44.5439 44C42.887 44 45.5439 38.6274 45.5439 32C45.5439 25.3726 42.887 20 44.5439 20C46.2007 20 49.5442 25.3726 49.5442 32Z" fill="#E33141"/>
<path d="M57.8156 32C57.8156 40.8366 54.3012 48 51.8159 48C49.3307 48 53.3156 40.8366 53.3156 32C53.3156 23.1634 49.3307 16 51.8159 16C54.3012 16 57.8156 23.1634 57.8156 32Z" fill="#E33141"/>
<path d="M18.5 23L30 14V16.5L19 25H7.5V40H5.5V25V24V23H18.5Z" fill="#D9D9D9"/>
</svg>
